<?xml version="1.0" encoding="UTF-8"?>
<svg xmlns="http://www.w3.org/2000/svg" xmlns:xlink="http://www.w3.org/1999/xlink" width="526.8pt" height="160.27pt" viewBox="0 0 526.8 160.27" version="1.1">
<defs>
<clipPath id="clip1">
  <path d="M 0 0 L 526.800781 0 L 526.800781 156 L 0 156 Z M 0 0 "/>
</clipPath>
<clipPath id="clip2">
  <path d="M 31 92 L 505 92 L 505 160.269531 L 31 160.269531 Z M 31 92 "/>
</clipPath>
</defs>
<g id="surface1">
<g clip-path="url(#clip1)" clip-rule="nonzero">
<path style=" stroke:none;fill-rule:nonzero;fill:rgb(13.699341%,12.199402%,12.5%);fill-opacity:1;" d="M 526.800781 155.132813 L 0 155.132813 L 0 0.00390625 L 526.800781 0.00390625 L 526.800781 155.132813 "/>
</g>
<path style=" stroke:none;fill-rule:nonzero;fill:rgb(99.598694%,99.598694%,99.598694%);fill-opacity:1;" d="M 163.171875 48.019531 L 150.285156 48.019531 L 150.285156 35.15625 C 150.285156 35.15625 160.851563 35.136719 163.664063 35.601563 C 166.035156 36.222656 167.652344 39.054688 167.550781 41.589844 C 167.445313 44.210938 165.804688 47.621094 163.171875 48.019531 Z M 177.164063 58.507813 C 182.761719 56.171875 188.480469 47.226563 188.089844 39.664063 C 187.71875 32.511719 182.660156 20.863281 166.253906 20.863281 C 154.765625 20.882813 143.269531 20.863281 131.773438 20.867188 C 131.066406 20.867188 130.355469 20.992188 129.558594 21.0625 L 129.558594 87.394531 L 150.152344 87.394531 L 150.152344 62.292969 L 156.648438 62.292969 C 159.921875 70.816406 163.109375 79.113281 166.304688 87.453125 L 189.054688 87.453125 C 185.015625 77.625 181.09375 68.082031 177.164063 58.507813 "/>
<path style=" stroke:none;fill-rule:nonzero;fill:rgb(99.598694%,99.598694%,99.598694%);fill-opacity:1;" d="M 480.261719 66.449219 C 478.285156 70.167969 475.078125 72.277344 470.679688 72.175781 C 469.203125 72.144531 467.730469 72.167969 466 72.167969 L 466 36.109375 C 468.472656 36.109375 470.816406 35.921875 473.117188 36.152344 C 476.445313 36.484375 478.816406 38.496094 480.269531 41.390625 C 484.445313 49.71875 484.65625 58.152344 480.261719 66.449219 Z M 504.324219 48.292969 C 502.101563 32.898438 490.390625 20.78125 473.78125 20.863281 C 465.15625 20.90625 445.414063 20.863281 445.414063 20.863281 L 445.414063 87.28125 C 445.988281 87.453125 463.695313 87.667969 472.628906 87.40625 C 482.804688 87.113281 492.332031 83.726563 498.363281 75.03125 C 503.972656 66.9375 505.71875 57.914063 504.324219 48.292969 "/>
<path style=" stroke:none;fill-rule:nonzero;fill:rgb(99.598694%,99.598694%,99.598694%);fill-opacity:1;" d="M 418.113281 20.980469 C 423.75 20.980469 429.046875 20.980469 434.554688 20.980469 C 434.554688 43.078125 434.554688 65.070313 434.554688 87.347656 C 429.144531 87.347656 423.683594 87.347656 417.730469 87.347656 C 409.960938 74.449219 402.027344 61.273438 393.765625 47.558594 C 393.765625 61.226563 393.765625 74.207031 393.765625 87.410156 C 388.582031 87.410156 383.234375 87.410156 377.730469 87.410156 C 377.730469 65.265625 377.730469 43.277344 377.730469 21.074219 C 384.238281 21.074219 390.671875 21.074219 397.207031 21.074219 C 404.265625 32.816406 411.335938 44.585938 418.40625 56.351563 C 418.738281 56.25 418.113281 26.878906 418.113281 20.980469 "/>
<path style=" stroke:none;fill-rule:nonzero;fill:rgb(99.598694%,99.598694%,99.598694%);fill-opacity:1;" d="M 214.980469 87.457031 C 208.371094 87.457031 202.144531 87.457031 195.714844 87.457031 C 195.714844 65.308594 195.714844 43.335938 195.714844 21.113281 C 201.996094 21.113281 208.300781 21.113281 214.925781 21.113281 C 214.925781 29.679688 214.925781 38.234375 214.925781 46.792969 C 215.183594 46.898438 227.367188 29.804688 233.296875 21.007813 C 239.152344 21.007813 245.082031 21.007813 251.675781 21.007813 C 246.054688 29.199219 240.644531 37.085938 235.078125 45.191406 C 241.960938 59.144531 248.84375 73.101563 255.90625 87.421875 C 248.144531 87.421875 240.871094 87.421875 233.410156 87.421875 C 229.675781 79.261719 225.929688 71.082031 221.949219 62.394531 C 219.585938 65.722656 215 72.324219 215 72.324219 C 215 72.324219 214.980469 82.828125 214.980469 87.457031 "/>
<path style=" stroke:none;fill-rule:nonzero;fill:rgb(99.598694%,99.598694%,99.598694%);fill-opacity:1;" d="M 53.253906 87.457031 C 46.644531 87.457031 40.417969 87.457031 33.988281 87.457031 C 33.988281 65.308594 33.988281 43.335938 33.988281 21.113281 C 40.269531 21.113281 46.574219 21.113281 53.203125 21.113281 C 53.203125 29.679688 53.203125 38.234375 53.203125 46.792969 C 53.460938 46.898438 65.640625 29.804688 71.570313 21.007813 C 77.425781 21.007813 83.355469 21.007813 89.949219 21.007813 C 84.332031 29.199219 78.917969 37.085938 73.355469 45.191406 C 80.234375 59.144531 87.117188 73.101563 94.179688 87.421875 C 86.417969 87.421875 79.144531 87.421875 71.683594 87.421875 C 67.949219 79.261719 64.203125 71.082031 60.226563 62.394531 C 57.859375 65.722656 53.273438 72.324219 53.273438 72.324219 C 53.273438 72.324219 53.253906 82.828125 53.253906 87.457031 "/>
<path style=" stroke:none;fill-rule:nonzero;fill:rgb(99.598694%,99.598694%,99.598694%);fill-opacity:1;" d="M 281.332031 71.324219 C 290.417969 71.324219 298.890625 71.324219 307.527344 71.324219 C 307.527344 76.804688 307.527344 82.058594 307.527344 87.476563 C 291.925781 87.476563 276.441406 87.476563 260.796875 87.476563 C 260.796875 65.273438 260.796875 43.222656 260.796875 21.015625 C 267.617188 21.015625 274.285156 21.015625 281.332031 21.015625 C 281.332031 37.632813 281.332031 54.261719 281.332031 71.324219 "/>
<path style=" stroke:none;fill-rule:nonzero;fill:rgb(99.598694%,99.598694%,99.598694%);fill-opacity:1;" d="M 371.765625 87.332031 L 350.929688 87.332031 C 349.945313 84.023438 340.34375 48.695313 338.648438 42.34375 C 338.367188 42.316406 338.085938 42.285156 337.804688 42.261719 C 335.273438 49.546875 327.332031 79.636719 325.199219 87.414063 L 308.535156 87.414063 C 315.441406 65.167969 322.292969 43.117188 329.167969 20.992188 L 351 20.992188 C 353.746094 29.828125 370.160156 82.234375 371.765625 87.332031 "/>
<path style=" stroke:none;fill-rule:nonzero;fill:rgb(99.598694%,99.598694%,99.598694%);fill-opacity:1;" d="M 119.238281 21.070313 C 119.238281 43.277344 119.238281 65.273438 119.238281 87.460938 C 112.417969 87.460938 105.765625 87.460938 98.96875 87.460938 C 98.96875 65.289063 98.96875 43.285156 98.96875 21.070313 C 105.636719 21.070313 112.28125 21.070313 119.238281 21.070313 "/>
<g clip-path="url(#clip2)" clip-rule="nonzero">
<path style=" stroke:none;fill-rule:nonzero;fill:rgb(74.499512%,11.799622%,17.599487%);fill-opacity:1;" d="M 255.25 126.585938 C 254.214844 124.886719 255.523438 123.648438 256.40625 122.695313 C 260.269531 118.515625 264.839844 115.304688 270.359375 113.660156 C 272.191406 113.117188 273.90625 113.488281 275.328125 115.304688 C 271.820313 118.5625 255.816406 127.4375 255.25 126.585938 Z M 151.46875 125.890625 C 146.585938 125.011719 162.101563 115.703125 166.890625 113.699219 C 171.4375 111.796875 172.265625 114.78125 172.007813 115.007813 C 166.492188 119.828125 154.355469 126.304688 151.46875 125.890625 Z M 143.601563 150.980469 C 142.355469 150.832031 142.828125 148.375 143.320313 147.59375 C 147.1875 141.429688 152.707031 137.046875 159.0625 133.601563 C 153.8125 139.3125 145.980469 151.792969 143.601563 150.980469 Z M 439.847656 111.949219 C 440.757813 113.550781 430.558594 116.613281 426.027344 117.789063 C 429.605469 114.453125 437.128906 109.265625 439.847656 111.949219 Z M 500.457031 124.523438 C 481.597656 123.128906 462.851563 124.355469 444.144531 126.796875 C 438.980469 127.476563 433.777344 127.960938 428.546875 127.683594 C 427.804688 127.648438 427.03125 127.710938 426.328125 127.46875 C 424.425781 126.808594 422.628906 125.636719 422.535156 123.578125 C 422.4375 121.546875 424.699219 120.964844 426.042969 120.582031 C 430.667969 119.246094 435.105469 117.460938 439.40625 115.339844 C 443.628906 113.265625 444.628906 108.921875 436.238281 109.605469 C 430.339844 110.085938 425.742188 112.921875 422.0625 117.304688 C 420.273438 119.429688 418.214844 120.832031 415.632813 121.773438 C 411.238281 123.390625 406.808594 124.921875 402.351563 126.355469 C 396.722656 128.171875 393.4375 126.640625 397.507813 122.566406 C 398.785156 121.289063 400.132813 120.058594 401.097656 118.503906 C 402.636719 116.03125 402.203125 114.617188 399.5625 113.515625 C 398.285156 112.984375 396.894531 112.683594 395.773438 111.847656 C 393.941406 110.480469 392.34375 110.792969 390.535156 112.019531 C 382.589844 117.398438 376.628906 120.65625 363.507813 126.28125 C 360.824219 127.429688 355.472656 125.90625 359.222656 121.59375 C 360.933594 119.625 363.816406 118.066406 366.109375 116.894531 C 371.285156 114.25 368.207031 112.078125 364.691406 113.652344 C 361.878906 114.917969 358.945313 115.957031 356.226563 117.390625 C 350.367188 120.476563 344.117188 122.628906 338.097656 125.339844 C 332.523438 127.855469 330.378906 124.0625 335.410156 121.035156 C 338.789063 119 341.828125 116.460938 345.253906 114.503906 C 346.074219 114.039063 346.992188 113.625 347.042969 112.410156 C 346.40625 110.964844 345.183594 111.304688 344.058594 111.578125 C 342.304688 112.011719 340.609375 112.664063 338.992188 113.5 C 329.628906 118.371094 319.664063 121.828125 309.972656 125.972656 C 303.957031 128.546875 299.097656 127.890625 302.996094 122.523438 C 305.863281 118.574219 309.730469 115.753906 313.21875 112.492188 C 315.839844 110.042969 319.992188 106.601563 320.441406 106.5 C 324.816406 105.5 343.8125 105.046875 350.507813 104.882813 C 355.203125 104.765625 359.859375 105.066406 364.492188 105.886719 C 365.726563 106.109375 367.011719 106.453125 368.351563 105.359375 C 368.429688 103.144531 367.355469 102.351563 365.0625 102.511719 C 341.816406 104.125 323.972656 103.207031 323.941406 103.167969 C 323.941406 103.167969 327.316406 99.875 329.023438 98.042969 C 328.160156 96.746094 325.273438 97.082031 325.273438 97.082031 C 323.355469 98.25 318.445313 102.304688 316.605469 103.917969 C 316.605469 103.917969 312.515625 104.582031 308.050781 104.664063 C 301.273438 104.792969 295.71875 104.78125 289.546875 104.734375 C 288.9375 104.730469 288.257813 104.730469 287.6875 105.636719 C 295.773438 106.042969 305.566406 106.375 314.023438 106.207031 C 311.382813 108.363281 306.898438 112.832031 296.582031 117.488281 C 290.667969 120.15625 285.128906 123.617188 279.054688 125.949219 C 276.722656 126.84375 275.597656 126.105469 275.367188 124.472656 C 275.191406 122.5 282.070313 119.257813 282.390625 114.234375 C 280.621094 113.023438 279.378906 112.8125 277.6875 113.445313 C 276.382813 109.527344 273.085938 110.285156 269.878906 110.984375 C 258.78125 113.390625 232.890625 124.351563 230.394531 125.550781 C 226.738281 127.3125 223.644531 125.421875 227.691406 121.296875 C 228.808594 120.15625 230.210938 119.320313 231.289063 118.132813 C 232.265625 117.058594 233.703125 116.058594 232.738281 114.320313 C 231.785156 112.617188 230.304688 111.65625 228.246094 111.949219 C 226.023438 112.261719 218.28125 114.703125 216.664063 115.515625 C 212.738281 117.484375 212.988281 115.28125 212.28125 113.839844 C 211.578125 112.414063 210.484375 111.847656 208.988281 111.757813 C 206.9375 111.636719 204.996094 111.960938 203.046875 112.664063 C 195.023438 115.53125 187.175781 118.84375 179.300781 122.074219 C 178.058594 122.582031 176.800781 123.441406 175.472656 122.230469 C 174.65625 121.324219 176.132813 119.679688 176.894531 118.90625 C 180.953125 114.796875 178.921875 112.804688 176.632813 112.867188 C 176.007813 112.886719 174.515625 113.25 174.4375 112.972656 C 172.882813 109.847656 170.027344 110.359375 167.101563 110.8125 C 159.972656 111.910156 153.453125 114.898438 146.769531 117.347656 C 139.175781 120.132813 131.523438 122.710938 123.75 125.003906 C 118.9375 126.421875 117.1875 124.359375 121.125 121.8125 C 123.175781 120.484375 125.40625 119.425781 127.289063 117.839844 C 128.773438 116.601563 129.878906 115.097656 128.886719 113.132813 C 127.960938 111.308594 126.171875 111.710938 124.625 112.074219 C 116.957031 113.890625 109.234375 115.457031 101.714844 117.851563 C 98.820313 118.773438 96.753906 119.171875 96.511719 118.179688 C 96.480469 118.191406 94.628906 107.128906 65.804688 112.492188 C 57.003906 114.128906 55.042969 111.628906 60.417969 109.675781 C 69.621094 106.328125 101.546875 96.457031 108.371094 95.1875 C 111.167969 94.671875 111.292969 91.128906 105.921875 92.289063 C 94.167969 94.828125 60.894531 106.222656 53.433594 109.316406 C 46.847656 112.042969 39.425781 113.316406 33.085938 116.585938 C 30.503906 117.921875 31.085938 123.046875 37.003906 121.171875 C 46.015625 118.3125 58.316406 116.203125 67.621094 115.128906 C 71.742188 114.65625 85.335938 113.625 87.855469 114.785156 C 90.066406 115.808594 90.386719 117.160156 88.890625 119.066406 C 87.746094 120.535156 86.140625 121.390625 84.519531 122.210938 C 74.289063 127.316406 41.804688 138.898438 36.421875 141.191406 C 34.664063 141.945313 32.882813 142.855469 33.335938 145.351563 C 33.730469 146.984375 36.976563 146.382813 38.777344 145.882813 C 42.894531 144.75 80.621094 128.453125 95.859375 122.703125 C 102.332031 120.261719 109.171875 118.960938 115.75 116.8125 C 119.8125 115.484375 120.753906 118.671875 117.949219 120.058594 C 116.035156 121.003906 114.304688 122.265625 112.574219 123.492188 C 111.480469 124.265625 110.605469 125.230469 110.90625 126.6875 C 111.246094 128.335938 113.128906 130.171875 116.691406 129.609375 C 118.460938 129.332031 136.234375 123.371094 144.695313 120.160156 C 149.4375 118.359375 151.3125 120.109375 147.746094 123.53125 C 146.496094 124.734375 145.414063 126.144531 146.507813 128.023438 C 148.8125 131.984375 158.878906 126.542969 162.195313 124.160156 C 164.097656 122.785156 165.882813 121.085938 168.339844 120.773438 C 169.332031 122.546875 168.265625 123.5 167.511719 124.445313 C 164.671875 127.980469 161.132813 130.613281 157.023438 132.535156 C 149.734375 135.941406 143.871094 140.957031 139.507813 147.792969 C 138.050781 150.074219 137.25 152.394531 136.453125 154.992188 C 136.050781 157.261719 136.929688 159.664063 139.007813 160.136719 C 140.523438 161.09375 145.714844 156.625 146.707031 154.960938 C 151.453125 150.175781 156.828125 141.769531 161.394531 136.140625 C 161.722656 135.742188 162.039063 135.359375 162.355469 134.988281 C 164.679688 132.265625 167.265625 130.054688 170.621094 128.675781 C 180.851563 124.464844 190.8125 119.609375 201.304688 116.039063 C 202.882813 115.496094 205.785156 114.859375 206.320313 116.164063 C 206.535156 118 205.304688 119.117188 203.992188 120.070313 C 201.839844 121.636719 199.707031 123.21875 197.429688 124.605469 C 196.308594 125.289063 194.882813 125.902344 195.316406 127.832031 C 196.753906 128.625 198.027344 127.820313 199.144531 127.1875 C 207.105469 122.652344 215.570313 119.160156 223.75 115.074219 C 228.273438 112.8125 229.566406 115.417969 227.320313 118.023438 C 225.863281 119.71875 224.484375 121.476563 223.046875 123.1875 C 221.96875 124.484375 221.441406 126.023438 222.246094 127.632813 C 223.128906 129.390625 224.902344 129.492188 226.453125 129.085938 C 233.316406 127.28125 244.425781 121.617188 248.988281 120.34375 C 252.910156 119.25 253.316406 121.375 251.484375 124.0625 C 250.492188 125.519531 249.972656 127.328125 251.191406 128.855469 C 252.480469 130.464844 254.378906 129.878906 255.945313 129.308594 C 259.242188 128.121094 262.457031 126.699219 265.496094 124.925781 C 266.851563 124.132813 270.128906 121.96875 270.609375 123.972656 C 271.949219 129.167969 274.574219 130.476563 279.507813 128.183594 C 284.816406 125.71875 289.929688 122.824219 295.265625 120.40625 C 299.410156 118.53125 301.988281 118.546875 299.320313 123.488281 C 298.476563 125.054688 298.152344 126.757813 299.316406 128.332031 C 300.511719 129.933594 302.253906 129.871094 303.980469 129.5625 C 310.011719 128.503906 315.675781 126.257813 321.160156 123.699219 C 328.066406 120.480469 328.296875 122.730469 327.855469 124.335938 C 326.925781 127.753906 328.695313 129.558594 332.183594 129.703125 C 333.824219 129.773438 335.292969 129.152344 336.800781 128.613281 C 341.296875 127 351.503906 121.417969 352.949219 122.777344 C 353.644531 123.265625 353.789063 123.890625 353.984375 124.503906 C 355.230469 128.582031 356.800781 129.550781 361.050781 128.785156 C 368.300781 127.476563 374.628906 123.859375 381.054688 120.554688 C 383.789063 119.148438 386.421875 117.507813 389.058594 115.910156 C 392.804688 113.652344 393.769531 113.796875 397.550781 116.917969 C 397.71875 119.027344 396.128906 120.164063 394.828125 121.320313 C 392.972656 122.984375 391.269531 124.597656 392.632813 127.136719 C 394.09375 129.871094 396.796875 129.359375 399.179688 128.773438 C 404.246094 127.527344 409.3125 126.261719 414.210938 124.425781 C 415.722656 123.859375 419.097656 123.324219 420.398438 126.3125 C 421.59375 129.042969 424.546875 129.683594 427.511719 129.839844 C 433.414063 130.144531 439.179688 129.003906 444.980469 128.332031 C 461.699219 126.382813 478.476563 125.332031 495.289063 126.023438 C 498.3125 126.148438 503.472656 127.574219 504.3125 126.386719 C 505.003906 124.984375 501.894531 124.632813 500.457031 124.523438 "/>
</g>
<path style=" stroke:none;fill-rule:nonzero;fill:rgb(74.499512%,11.799622%,17.599487%);fill-opacity:1;" d="M 370.558594 56.757813 C 363.929688 62.75 344.441406 72.492188 343.320313 82.554688 C 340.914063 78.933594 334.660156 75.578125 330.601563 75.246094 C 330.207031 73.242188 335.414063 65.625 342.445313 63.945313 C 343.207031 63.765625 364.566406 60.832031 370.558594 56.757813 "/>
<path style=" stroke:none;fill-rule:nonzero;fill:rgb(74.499512%,11.799622%,17.599487%);fill-opacity:1;" d="M 147.585938 99.324219 C 143.945313 102.003906 140.691406 104.507813 137.3125 106.828125 C 135.773438 107.886719 134.074219 108.28125 132.429688 106.640625 C 131.730469 105.945313 130.636719 105.644531 129.363281 104.976563 C 134.179688 98.746094 141.363281 101.285156 147.585938 99.324219 "/>
</g>
</svg>
