<?xml version="1.0" ?><svg data-name="Layer 1" id="Layer_1" viewBox="0 0 185 185" xmlns="http://www.w3.org/2000/svg"><defs><style>.cls-1{fill:#d9e2e9;}.cls-2{fill:#bd8d5a;}.cls-3{fill:#00063c;}.cls-4{fill:#e8c79c;}.cls-5{fill:#2f3a5a;}.cls-6{fill:#8fb6f8;}.cls-7{fill:#6c95f8;}.cls-8{fill:#d0aa79;}.cls-9{fill:#39476b;}.cls-10{fill:#566ef5;}.cls-11{fill:#fc3133;}.cls-12{fill:#e51b3a;}</style></defs><title/><circle class="cls-1" cx="92.5" cy="92.5" r="90"/><rect class="cls-2" height="38.8" width="5.87" x="69.79" y="104.45"/><path class="cls-3" d="M75.66,144H69.79a.76.76,0,0,1-.75-.75v-38.8a.76.76,0,0,1,.75-.75h5.87a.75.75,0,0,1,.75.75v38.8A.75.75,0,0,1,75.66,144Zm-5.12-1.5h4.37V105.2H70.54Z"/><rect class="cls-2" height="38.8" width="5.87" x="135.16" y="104.45"/><path class="cls-3" d="M141,144h-5.87a.75.75,0,0,1-.75-.75v-38.8a.75.75,0,0,1,.75-.75H141a.76.76,0,0,1,.75.75v38.8A.76.76,0,0,1,141,144Zm-5.12-1.5h4.37V105.2h-4.37Z"/><path class="cls-4" d="M79.59,86.43,68.93,83.05s-27.26-4.82-26.88,8.8l9.24,41.83,7.12.54s2.28-22.7-3.17-36.47c0,0,16.95,3.86,24.69-3.81C82,91.92,78.26,90.24,79.59,86.43Z"/><path class="cls-3" d="M58.41,135h-.06l-7.12-.54a.76.76,0,0,1-.67-.59L41.32,92a.77.77,0,0,1,0-.15,8.12,8.12,0,0,1,2.85-6.68c6.93-6,24.18-3,24.91-2.87l10.75,3.39a.74.74,0,0,1,.45.38.78.78,0,0,1,0,.58,4.78,4.78,0,0,0,.42,3.91c.53,1.18,1.12,2.53-.26,3.9-6.74,6.67-19.81,5-24,4.27,4.86,13.82,2.83,34.64,2.74,35.54A.75.75,0,0,1,58.41,135Zm-6.51-2,5.82.45c.33-4,1.6-23.33-3.18-35.39a.77.77,0,0,1,.13-.77A.74.74,0,0,1,55.4,97c.17,0,16.64,3.68,24-3.61.62-.61.47-1-.05-2.23a6.54,6.54,0,0,1-.68-4.26l-10-3.15c-.08,0-17.19-3-23.58,2.56a6.58,6.58,0,0,0-2.33,5.43Z"/><path class="cls-5" d="M36.52,140.87V138c0,.13.4,1.1,10.14.83l7.77-.56a.58.58,0,0,0,.48-.31l.78-1.47h0l4.94-.25,0,.23a13.75,13.75,0,0,1-.51,4.57c-.06.15-7.84,1.24-18.29,1.07,0,0-4.82.12-5.32-1.27Z"/><path class="cls-3" d="M44.06,142.91l-2.23,0c-1.59,0-5.4,0-6-1.77a.73.73,0,0,1,0-.25V138a.74.74,0,0,1,.73-.75.73.73,0,0,1,.66.34c.33.16,2,.7,9.48.49l7.65-.55.74-1.39a.74.74,0,0,1,.63-.4l4.94-.25a.74.74,0,0,1,.78.7l0,.23a14.36,14.36,0,0,1-.56,4.88c-.16.44-.25.67-5.89,1.14C52.44,142.68,48.64,142.91,44.06,142.91Zm-2.24-1.52a111.49,111.49,0,0,0,17.71-.95,13.57,13.57,0,0,0,.38-3.38l-3.76.18-.59,1.1a1.31,1.31,0,0,1-1.09.71l-7.76.56c-5.33.15-8.05-.05-9.44-.38v1.44C37.63,141.06,39.62,141.44,41.82,141.39Z"/><path class="cls-6" d="M36.51,138s-.09-.64.84-1.17a3.22,3.22,0,0,1,.76-.34l.65-.21.3-.1,0,0,.21-.07.23-.08.14-.06.21-.07.26-.09.54-.2.22-.08.61-.23.12,0,.11,0,.12,0,.08,0,.1,0,.24-.09.05,0s6.84-4.33,7.5-4.46c.36-.08,1.09.33,1.86.75l.25.14c.54.29,3.11,2.06,5.52.26a2.81,2.81,0,0,0,.84-1,.66.66,0,0,1,.71-.44c.36.07.77,1.38,1.08,2.87l0,.12c0,.14,0,.29.08.43s0,.12,0,.18.07.38.1.57l0,.22,0,.14c0,.26.07.51.1.74s.07.56.09.79l-4.5.23a.76.76,0,0,0-.64.4l-.53,1a.78.78,0,0,1-.62.4l-7.67.55c-9.74.28-10.13-.7-10.14-.83Z"/><path class="cls-3" d="M43.41,139.65c-7.53,0-7.61-1-7.65-1.57V138A2.05,2.05,0,0,1,37,136.19a4.1,4.1,0,0,1,.91-.41l.63-.2,2.74-1,.13-.05.12,0,.1,0,.1,0,.32-.12c3.09-2,7-4.39,7.67-4.52s1.22.21,2.3.8l.49.27c1.17.68,2.9,1.44,4.54.22a2.13,2.13,0,0,0,.63-.77,1.39,1.39,0,0,1,1.51-.84c.52.11,1,.44,1.67,3.45l.16.76c0,.19.07.39.1.58l0,.23-.72.25.74-.12c0,.27.08.52.11.76s.07.58.09.83a.74.74,0,0,1-.71.81l-4.5.23-.55,1a1.51,1.51,0,0,1-1.23.8l-7.67.55C45.47,139.64,44.38,139.65,43.41,139.65Zm-6-1.93c.74.21,2.94.56,9.21.38l7.63-.55.55-1a1.52,1.52,0,0,1,1.26-.8l3.71-.19c0-.22-.07-.46-.1-.7l0-.15,0-.19c0-.2-.07-.39-.1-.57l-.12-.59,0-.13a15.49,15.49,0,0,0-.54-2,3.5,3.5,0,0,1-.91,1c-1.75,1.29-3.83,1.25-6.19-.13l-.4-.22a8.66,8.66,0,0,0-1.36-.67c-.69.3-4.16,2.41-7.23,4.35l-.12.06-.31.12-.12.05-.29.11-.38-.66.26.7-1.75.65-.1,0L39,137l-.68.21a2.55,2.55,0,0,0-.55.26A1.59,1.59,0,0,0,37.42,137.72Z"/><path class="cls-3" d="M36.51,138.77a.76.76,0,0,1-.75-.66.83.83,0,0,1,.05-.38.75.75,0,0,1,1.44.34.74.74,0,0,1-.65.69Z"/><path class="cls-4" d="M116.77,61.14c.41-6.37-1.44-19.19-1.44-19.19s5.55-9.56,4.07-11.6c-.92-1.26-3-1.56-4.42-1.61a1,1,0,0,0-1,1.14c.27,2-.78,5.65-.78,5.65-.34-.61-1.2-1.85-1.82-2.74a1.28,1.28,0,0,0-2.19,1.31,24.35,24.35,0,0,1,1.72,6.35c-3.51,5.46-2.45,16.18-2,18.77-4.4,23.8-2.2,8.71.07,20l11.56,6.22C121.13,81.08,116.77,61.14,116.77,61.14Z"/><path class="cls-3" d="M120.58,86.15a.73.73,0,0,1-.35-.09l-11.57-6.22a.82.82,0,0,1-.38-.51c-.79-4-1.53-4.34-1.81-4.48-1.11-.57-1.11-.57.36-8.41.36-1.88.8-4.24,1.35-7.22-.5-2.81-1.51-13.23,1.94-18.93a22.65,22.65,0,0,0-1.61-5.85A2,2,0,0,1,112,32.36l.9,1.3a12.88,12.88,0,0,0,.35-3.67,1.72,1.72,0,0,1,.43-1.43A1.82,1.82,0,0,1,115,28c1.69.05,3.93.43,5,1.92,1.53,2.12-2.12,9.06-3.9,12.19.26,1.88,1.78,13,1.41,19,.38,1.72,4.35,20.12,3.81,24.41a.78.78,0,0,1-.41.57A.66.66,0,0,1,120.58,86.15Zm-10.9-7.47,10.2,5.49c-.12-5.76-3.8-22.68-3.84-22.87a.68.68,0,0,1,0-.21c.41-6.22-1.42-18.91-1.44-19V42a.72.72,0,0,1,.1-.38c2.91-5,4.76-9.89,4.12-10.78-.77-1.05-2.74-1.27-3.85-1.3a.17.17,0,0,0-.17.07.3.3,0,0,0-.07.22c.29,2.14-.75,5.81-.8,6a.75.75,0,0,1-.63.54.73.73,0,0,1-.74-.38c-.26-.45-.89-1.4-1.79-2.67a.5.5,0,0,0-.71-.14.51.51,0,0,0-.19.67,24.68,24.68,0,0,1,1.8,6.69.82.82,0,0,1-.12.41c-3.39,5.26-2.3,15.87-1.85,18.22a.61.61,0,0,1,0,.27c-.56,3-1,5.46-1.37,7.37a66.89,66.89,0,0,0-1.15,6.8C108,74,108.87,74.83,109.68,78.68Z"/><polygon class="cls-7" points="119.67 72.02 105.86 70.21 104.66 87.98 121.4 95.51 119.67 72.02"/><path class="cls-3" d="M121.4,96.26a.85.85,0,0,1-.31-.06l-16.74-7.54a.76.76,0,0,1-.44-.73l1.21-17.77a.74.74,0,0,1,.84-.69l13.81,1.8a.76.76,0,0,1,.65.69l1.73,23.5a.74.74,0,0,1-.75.8Zm-16-8.75,15.12,6.8L119,72.68l-12.41-1.62Z"/><path class="cls-4" d="M82.5,87.52l-9.35-3.8S44.59,79.32,45,93l9.24,41.82,7.12.54s2.29-22.7-3.17-36.47c0,0,16.95,3.86,24.69-3.8C84.88,93,81.17,91.33,82.5,87.52Z"/><path class="cls-8" d="M82.85,95c-7.75,7.67-24.7,3.81-24.7,3.81,5.46,13.77,3.17,36.47,3.17,36.47l-7.11-.54-.67-3L57,132s2.29-22.7-3.16-36.47c0,0,16.95,3.86,24.69-3.8,1.76-1.75-.76-3.24-.64-6.07l4.6,1.86C81.17,91.33,84.89,93,82.85,95Z"/><path class="cls-3" d="M61.32,136.06h-.06l-7.11-.54a.77.77,0,0,1-.68-.59L44.23,93.11s0-.1,0-.14A8.12,8.12,0,0,1,47,86.39c7.12-6.28,25.48-3.53,26.25-3.41l.17,0,9.35,3.81a.75.75,0,0,1,.43.94,4.8,4.8,0,0,0,.42,3.9c.53,1.19,1.12,2.53-.26,3.9-6.74,6.67-19.81,5-24.05,4.27,4.86,13.82,2.84,34.64,2.75,35.54A.76.76,0,0,1,61.32,136.06Zm-6.5-2,5.82.45c.32-4,1.59-23.32-3.19-35.39a.77.77,0,0,1,.13-.77.75.75,0,0,1,.73-.24c.17,0,16.65,3.68,24-3.61.61-.61.46-1-.06-2.22A6.6,6.6,0,0,1,81.59,88L73,84.45c-1.36-.2-18.58-2.54-24.94,3.07a6.56,6.56,0,0,0-2.3,5.33Z"/><path class="cls-5" d="M39.43,142v-2.84c0,.13.39,1.1,10.14.83l7.76-.56a.56.56,0,0,0,.48-.31l.79-1.47h0l4.94-.25v.23a13.71,13.71,0,0,1-.51,4.57c-.06.15-7.84,1.24-18.28,1.07,0,0-4.82.13-5.33-1.27Z"/><path class="cls-3" d="M47,144l-2.24,0c-1.59,0-5.39,0-6-1.77a.73.73,0,0,1,0-.25v-2.84a.74.74,0,0,1,.72-.75.76.76,0,0,1,.66.34c.33.16,2,.7,9.49.49l7.64-.55.74-1.39a.75.75,0,0,1,.63-.4l4.94-.25a.74.74,0,0,1,.78.7l0,.23a14.36,14.36,0,0,1-.56,4.88c-.16.44-.25.68-5.89,1.14C55.35,143.77,51.56,144,47,144Zm-2.24-1.52a112,112,0,0,0,17.7-.94,14.14,14.14,0,0,0,.39-3.39l-3.77.19-.58,1.09a1.34,1.34,0,0,1-1.1.71l-7.76.56c-5.32.15-8,0-9.44-.38v1.45C40.54,142.15,42.53,142.54,44.74,142.48Z"/><path class="cls-6" d="M39.42,139.1s-.08-.64.84-1.16a2.85,2.85,0,0,1,.76-.35l.65-.21.3-.1.05,0,.21-.07.23-.08.15-.05.2-.08.27-.09.53-.2.22-.08.61-.23.12,0,.12-.05.12,0,.07,0,.1,0,.24-.09,0,0s6.84-4.33,7.5-4.46c.36-.08,1.09.33,1.86.76l.25.13c.54.3,3.11,2.06,5.52.27a2.87,2.87,0,0,0,.85-1,.67.67,0,0,1,.71-.44c.36.07.76,1.39,1.07,2.87l0,.12c0,.14.06.29.08.43a1.16,1.16,0,0,1,0,.18c0,.19.07.38.1.57s0,.15,0,.22,0,.1,0,.14c0,.26.08.51.11.74s.06.56.09.8l-4.51.22a.75.75,0,0,0-.63.4l-.54,1a.77.77,0,0,1-.62.4l-7.67.55c-9.74.28-10.13-.7-10.14-.83Z"/><path class="cls-3" d="M46.33,140.74c-7.54,0-7.61-1-7.66-1.57v-.07a2.05,2.05,0,0,1,1.22-1.82,4.43,4.43,0,0,1,.92-.41l.62-.2,2.74-1,.13-.05.12,0,.11,0,.11,0,.3-.12a72.71,72.71,0,0,1,7.68-4.52c.58-.11,1.21.21,2.28.79l.51.29c1.16.67,2.89,1.44,4.54.21a2.21,2.21,0,0,0,.62-.77,1.37,1.37,0,0,1,1.52-.83c.51.1,1,.44,1.67,3.44l.15.76c0,.19.07.39.1.58l0,.23-.72.25.74-.11c0,.26.08.52.11.76s.07.57.09.82a.76.76,0,0,1-.18.56.74.74,0,0,1-.53.25l-4.5.23-.55,1a1.49,1.49,0,0,1-1.22.79l-7.68.55C48.38,140.73,47.29,140.74,46.33,140.74Zm-6-1.93c.75.21,2.94.56,9.21.38l7.64-.54.55-1a1.51,1.51,0,0,1,1.26-.8l3.7-.18c0-.23-.06-.47-.1-.71l0-.15,0-.19c0-.2-.06-.39-.1-.57l-.11-.59a.61.61,0,0,1,0-.13,16,16,0,0,0-.53-2,3.53,3.53,0,0,1-.92,1c-1.75,1.29-3.83,1.25-6.19-.13l-.39-.22a7.68,7.68,0,0,0-1.37-.66c-.69.29-4.15,2.4-7.23,4.35a.69.69,0,0,1-.15.07l-.28.11-.36-.67.23.72-2.14.79-.11,0-.14,0-.81.27-.67.22a2.5,2.5,0,0,0-.55.25A1.88,1.88,0,0,0,40.33,138.81Z"/><path class="cls-3" d="M39.42,139.86a.75.75,0,0,1-.74-.65.69.69,0,0,1,0-.35.75.75,0,1,1,.8,1Z"/><path class="cls-4" d="M143.27,81.16l-4.25-2-1.45.44a31.74,31.74,0,0,0-2.81-2.07c-1.23-.76-1.58.09-2,1.26,0,0-1.44-.23-1.82.6,0,0-.8-1.71-1.84-.08,0,0-.59.45-1.5-.3s-2.35.5-2.6,2.5a22.42,22.42,0,0,0-.21,3.18l-6.52-1.31L119,97.64s8.71-2.08,10.21-2.15A8.29,8.29,0,0,1,133,96c2.08,1.11,4.58,2.16,6.66,1.82s4.14.42,6.38-2.35,1.17-11.3,1.73-12.92S143.27,81.16,143.27,81.16Z"/><path class="cls-3" d="M138.88,98.67a14.22,14.22,0,0,1-6.19-2,7.4,7.4,0,0,0-3.49-.45c-1.17.05-7.67,1.56-10.07,2.13a.75.75,0,0,1-.63-.13.74.74,0,0,1-.3-.56l-.65-14.23a.76.76,0,0,1,.26-.6.75.75,0,0,1,.64-.17l5.64,1.14c0-.56.08-1.36.2-2.36a4,4,0,0,1,2.07-3.25,1.68,1.68,0,0,1,1.75.26,1,1,0,0,0,.53.27,1.73,1.73,0,0,1,1.49-.84,1.55,1.55,0,0,1,.94.42,2.85,2.85,0,0,1,1.2-.27,2.19,2.19,0,0,1,1.18-1.43,2,2,0,0,1,1.71.31c.94.59,2,1.45,2.57,1.87l1.07-.32a.74.74,0,0,1,.53,0l4.09,1.88c1.33,0,4.08,0,4.91,1.14a1.36,1.36,0,0,1,.19,1.28,17.43,17.43,0,0,0-.16,3.19c0,3.34,0,7.91-1.69,10a6.29,6.29,0,0,1-5.46,2.51,12.42,12.42,0,0,0-1.39.11A5.77,5.77,0,0,1,138.88,98.67Zm-8.95-4a7.52,7.52,0,0,1,3.46.65c1.7.9,4.2,2.06,6.19,1.74a12.4,12.4,0,0,1,1.58-.12,4.87,4.87,0,0,0,4.34-2c1.33-1.65,1.35-6.08,1.36-9a15.54,15.54,0,0,1,.22-3.62,8.69,8.69,0,0,0-3.79-.48.69.69,0,0,1-.34-.07L139,80l-1.18.36a.75.75,0,0,1-.69-.15s-1.55-1.27-2.72-2A1.07,1.07,0,0,0,134,78a4.26,4.26,0,0,0-.45,1,.75.75,0,0,1-.83.5c-.39-.06-.94,0-1,.18a.75.75,0,0,1-.68.43h0a.75.75,0,0,1-.68-.43,1.27,1.27,0,0,0-.26-.35,4,4,0,0,0-.27.36.81.81,0,0,1-.18.19,2,2,0,0,1-2.43-.32s-.09-.08-.24,0a2.56,2.56,0,0,0-1.13,2,22.44,22.44,0,0,0-.21,3.06.71.71,0,0,1-.27.59.76.76,0,0,1-.63.17l-5.58-1.13.57,12.36c2.33-.55,8.18-1.9,9.47-2Z"/><path class="cls-9" d="M143.27,81.16s.84,1.32-.34,3.86-2.89,3.33-4.79,2.92a19.42,19.42,0,0,0-2.78-.45L135,88.86s2.83.89,2.65,2.53-1.87,2.17-4.16,1.94-3.63-.46-4.21,1.37a4.1,4.1,0,0,0-.16.79A8.29,8.29,0,0,1,133,96c2.08,1.11,4.58,2.16,6.66,1.82s4.14.42,6.38-2.35,1.17-11.3,1.73-12.92S143.27,81.16,143.27,81.16Z"/><path class="cls-5" d="M147.81,82.58c-.56,1.62.51,10.16-1.72,12.92s-4.3,2-6.38,2.36S135.12,97.14,133,96a8.29,8.29,0,0,0-3.88-.54,3.16,3.16,0,0,1,.16-.8,1.86,1.86,0,0,1,1.86-1.5c2,1.07,4.44,2,6.45,1.71s4.15.42,6.38-2.35c1.82-2.24,1.47-8.22,1.56-11.31C146.84,81.38,148.09,81.73,147.81,82.58Z"/><path class="cls-3" d="M138.88,98.67a14.22,14.22,0,0,1-6.19-2,7.4,7.4,0,0,0-3.49-.45.71.71,0,0,1-.58-.23.75.75,0,0,1-.2-.59,4.7,4.7,0,0,1,.18-1c.74-2.31,2.55-2.13,4.64-1.92l.36,0c1.44.14,3.2,0,3.35-1.28.08-.76-1.43-1.51-2.13-1.73a.75.75,0,0,1-.51-.89l.32-1.37a.71.71,0,0,1,.76-.57,18.53,18.53,0,0,1,2.9.46c1.73.37,3-.45,4-2.5s.4-3.12.37-3.16a.77.77,0,0,1,0-.75.72.72,0,0,1,.62-.39c1.24,0,4.22,0,5.09,1.13a1.36,1.36,0,0,1,.19,1.28,17.43,17.43,0,0,0-.16,3.19c0,3.34,0,7.91-1.69,10a6.29,6.29,0,0,1-5.46,2.51,12.42,12.42,0,0,0-1.39.11A5.77,5.77,0,0,1,138.88,98.67Zm-8.78-4a7.28,7.28,0,0,1,3.29.65c1.7.9,4.2,2.07,6.19,1.74a12.4,12.4,0,0,1,1.58-.12,4.87,4.87,0,0,0,4.34-2c1.33-1.65,1.35-6.08,1.36-9a15.54,15.54,0,0,1,.22-3.62,6.63,6.63,0,0,0-2.81-.49,6.13,6.13,0,0,1-.66,3.44c-1.23,2.66-3.23,3.85-5.63,3.33-.93-.2-1.6-.3-2-.36l0,.09c1,.43,2.7,1.42,2.52,3.08-.1.92-.8,3-5,2.6l-.36,0C131,93.84,130.44,93.87,130.1,94.72Z"/><path class="cls-7" d="M121.31,84.32c-1.58-2.61-4.41-5.32-10.26-7a22.42,22.42,0,0,0-6.94-.88c-8.52.26-17.59,1.36-17.59,1.36l-5.67.75L80,96.48c.29,0,3.18,2.53,3.48,2.54,2.22.62,17.14,1.74,26.17,1.4,5,.11,9.71-.27,12.37-3.24Z"/><path class="cls-10" d="M122.05,97.18c-2.66,3-7.32,3.35-12.37,3.23-9,.34-24-.77-26.17-1.39-.3,0-3.19-2.5-3.49-2.54l.25-5.28a16.76,16.76,0,0,0,2.15,1.59c2.23.62,17.14,1.73,26.18,1.4,5.05.1,9.71-.28,12.37-3.24l-.45-7.78c.29.38.55.78.79,1.16Z"/><path class="cls-3" d="M106,101.23c-8.89,0-20.4-.9-22.59-1.47-.31-.05-.65-.3-2.13-1.47-.5-.39-1.24-1-1.46-1.11a.73.73,0,0,1-.49-.74l.82-17.93a.75.75,0,0,1,.66-.7l5.67-.75c.09,0,9.2-1.11,17.65-1.37a23.76,23.76,0,0,1,7.17.9c5.11,1.47,8.6,3.87,10.7,7.35a.67.67,0,0,1,.1.34l.75,12.86a.76.76,0,0,1-.19.54c-2.91,3.25-7.94,3.59-12.94,3.49C108.51,101.21,107.25,101.23,106,101.23ZM83.73,98.31c2.08.55,16.68,1.7,25.92,1.36,4.57.09,9.09-.18,11.63-2.77l-.71-12.35c-1.9-3-5.09-5.18-9.73-6.51a22.08,22.08,0,0,0-6.71-.85c-8.38.26-17.43,1.35-17.52,1.36l-5,.66L80.8,96.07c.28.2.69.52,1.36,1.05S83.49,98.16,83.73,98.31Z"/><path class="cls-4" d="M113.67,59.13c.42-6.38-1.44-19.2-1.44-19.2s5.55-9.56,4.08-11.59c-.92-1.27-3-1.57-4.43-1.62a1,1,0,0,0-1,1.15c.28,2-.78,5.65-.78,5.65-.34-.61-1.2-1.86-1.82-2.74a1.27,1.27,0,0,0-2.18,1.3,24.29,24.29,0,0,1,1.71,6.36c-3.5,5.45-2.45,16.18-2,18.76-4.39,23.81-2.19,8.72.07,20l11.57,6.23C118,79.07,113.67,59.13,113.67,59.13Z"/><path class="cls-3" d="M117.49,84.14a.74.74,0,0,1-.36-.09l-11.56-6.23a.71.71,0,0,1-.38-.51c-.8-4-1.54-4.33-1.82-4.48-1.11-.56-1.11-.56.37-8.4.35-1.88.8-4.24,1.35-7.23-.51-2.81-1.51-13.23,1.93-18.93a23.07,23.07,0,0,0-1.6-5.85,2,2,0,0,1,3.46-2.07l.9,1.29a12.14,12.14,0,0,0,.35-3.67,1.78,1.78,0,0,1,.44-1.43,1.85,1.85,0,0,1,1.34-.57c1.68.06,3.92.44,5,1.93,1.65,2.29-2.8,10.27-3.91,12.16.25,1.82,1.78,13,1.42,19,.37,1.72,4.34,20.13,3.8,24.41a.76.76,0,0,1-.4.58A.84.84,0,0,1,117.49,84.14Zm-10.9-7.47,10.19,5.49c-.11-5.76-3.8-22.69-3.84-22.87a.74.74,0,0,1,0-.21c.4-6.23-1.42-18.91-1.44-19a.72.72,0,0,1,.09-.48c2.52-4.32,4.83-9.8,4.12-10.78s-2.74-1.27-3.84-1.31c-.08,0-.13,0-.18.08a.28.28,0,0,0-.06.22c.29,2.14-.76,5.8-.81,6a.73.73,0,0,1-.63.53.76.76,0,0,1-.74-.37c-.25-.45-.89-1.4-1.78-2.68a.54.54,0,0,0-.72-.14.51.51,0,0,0-.18.67,24.75,24.75,0,0,1,1.78,6.6.68.68,0,0,1-.11.5c-3.38,5.27-2.29,15.88-1.84,18.22a.88.88,0,0,1,0,.28c-.56,3-1,5.46-1.38,7.37a65.73,65.73,0,0,0-1.14,6.79C104.94,72,105.77,72.81,106.59,76.67Z"/><polyline class="cls-7" points="118.31 93.5 116.58 70 102.77 68.2 101.56 85.96"/><path class="cls-3" d="M118.3,94.25a.75.75,0,0,1-.74-.7l-1.68-22.88L103.46,69l-1.15,17a.75.75,0,1,1-1.49-.1L102,68.15a.73.73,0,0,1,.27-.53.79.79,0,0,1,.58-.17l13.81,1.81a.75.75,0,0,1,.65.69l1.72,23.49a.75.75,0,0,1-.69.81Z"/><polygon class="cls-11" points="81.28 78.94 58.21 81.52 61.89 101.34 84.24 100.17 81.28 78.94"/><polygon class="cls-12" points="84.24 100.17 61.9 101.34 58.22 81.51 58.24 81.51 60.45 93.43 82.81 92.25 80.95 78.98 81.28 78.94 84.24 100.17"/><path class="cls-3" d="M61.89,102.09a.75.75,0,0,1-.74-.61L57.48,81.65a.75.75,0,0,1,.13-.58.72.72,0,0,1,.52-.3L81.2,78.19a.76.76,0,0,1,.83.64l3,21.23a.8.8,0,0,1-.17.58.75.75,0,0,1-.54.27l-22.35,1.18ZM59.1,82.17l3.41,18.39,20.88-1.1-2.75-19.7Z"/><rect class="cls-2" height="6.88" width="85.22" x="62.8" y="101.34"/><path class="cls-3" d="M148,109H62.8a.75.75,0,0,1-.75-.75v-6.88a.75.75,0,0,1,.75-.75H148a.76.76,0,0,1,.75.75v6.88A.76.76,0,0,1,148,109Zm-84.47-1.5h83.72v-5.38H63.55Z"/><circle class="cls-9" cx="110.95" cy="33.43" r="9.68" transform="translate(-3.92 18.2) rotate(-9.22)"/><path class="cls-5" d="M120.63,33.44a9.68,9.68,0,0,1-18,4.9,10.19,10.19,0,0,0,1.24.08,9.68,9.68,0,0,0,8.34-14.59A9.7,9.7,0,0,1,120.63,33.44Z"/><path class="cls-3" d="M111,43.87a10.44,10.44,0,1,1,10.43-10.44A10.45,10.45,0,0,1,111,43.87Zm0-19.37a8.94,8.94,0,1,0,8.93,8.93A8.95,8.95,0,0,0,111,24.5Z"/><circle class="cls-5" cx="110.95" cy="33.43" r="3.33" transform="translate(-3.92 18.2) rotate(-9.22)"/><path class="cls-3" d="M111,37.51A4.08,4.08,0,1,1,115,33.43,4.08,4.08,0,0,1,111,37.51Zm0-6.66a2.58,2.58,0,1,0,2.58,2.58A2.58,2.58,0,0,0,111,30.85Z"/><path class="cls-3" d="M149.66,144.25h-24a1,1,0,1,1,0-2h24a1,1,0,0,1,0,2Z"/><path class="cls-3" d="M120.63,144.25H31.34a1,1,0,0,1,0-2h89.29a1,1,0,0,1,0,2Z"/></svg>